<svg version="1.1" id="Layer_1" xmlns="http://www.w3.org/2000/svg" xmlns:xlink="http://www.w3.org/1999/xlink" x="0px" y="0px"
	 width="100%" viewBox="0 0 736 920" enable-background="new 0 0 736 920" xml:space="preserve">
<path fill="none" opacity="1.000000" stroke="#000000" stroke-linecap="round" stroke-linejoin="round" stroke-width="2.000000"
	d="
M320.500000,345.500000 
	C315.780365,341.552948 310.985870,337.704559 307.464844,332.523895 
	C305.980072,330.339294 303.682281,329.193756 300.999725,329.003998 
	C296.675903,328.698151 295.098145,330.753052 297.080658,334.456818 
	C297.771362,335.747223 298.247681,336.580566 297.534637,338.017181 
	C295.048431,343.025940 296.775543,347.202087 302.006042,348.982208 
	C303.865936,349.615143 304.890686,351.087708 305.991058,352.506927 
	C306.868866,353.639130 307.721283,354.799194 308.479797,356.012634 
	C308.945099,356.756989 309.212158,357.625305 309.332855,357.900787 
	C313.280182,356.695099 315.311340,354.772247 317.557495,353.076141 
	C319.795349,351.386169 322.892853,351.232544 324.891052,353.115631 
	C326.945129,355.051361 326.147736,357.624969 324.541534,360.027771 
	C316.329468,372.312500 304.726440,381.231140 293.947693,390.941956 
	C289.506500,394.943146 284.303101,397.760254 278.002594,398.055511 
	C274.623779,398.213867 272.363800,397.166260 270.970306,394.013123 
	C269.613068,390.942047 268.135620,388.019897 267.936707,384.503571 
	C267.498566,376.757507 263.071930,371.357330 257.014008,366.980621 
	C251.476089,362.979675 247.186066,358.048187 245.971588,351.004913 
	C245.850342,350.301666 245.240280,349.696228 245.017166,348.994537 
	C244.301041,346.742126 243.476120,344.328491 240.517487,345.069763 
	C237.024490,345.944916 237.775116,349.134308 238.095215,351.487061 
	C238.555618,354.871124 239.795807,358.141266 240.457855,361.508301 
	C240.959457,364.059326 242.184952,365.474121 244.354828,367.184204 
	C250.137665,371.741608 254.522964,377.752533 258.519135,383.987732 
	C262.839966,390.729553 266.467529,397.921875 272.446472,403.556793 
	C277.320831,408.150696 281.209656,409.269043 287.505737,405.008484 
	C289.303101,403.792236 291.045349,402.181366 293.702728,403.442719 
	C295.439270,410.924591 291.248199,416.918091 288.363892,422.934753 
	C282.951996,434.223785 274.602142,443.523804 266.629883,453.108032 
	C260.371826,460.631561 256.185211,469.443787 254.907074,479.488190 
	C254.177124,485.224487 249.923492,489.230743 245.881592,492.868439 
	C244.087296,494.483307 243.372086,495.824554 243.487335,498.000671 
	C243.638062,500.846161 242.538284,503.184601 239.985992,504.472229 
	C230.696762,509.158630 228.508545,517.652710 226.804947,526.964294 
	C225.702438,532.990417 226.609589,539.032104 225.193466,545.045532 
	C224.148483,549.483032 222.360794,553.261536 220.041595,557.025635 
	C217.999557,560.339783 216.748947,563.843933 216.871185,568.003784 
	C217.012207,572.802979 215.721283,577.456909 212.000000,581.000000 
"/>
<path fill="none" opacity="1.000000" stroke="#000000" stroke-linecap="round" stroke-linejoin="round" stroke-width="8.000000"
	d="
M411.500000,711.500000 
	C419.442413,718.200012 429.163147,720.251038 439.013733,721.380066 
	C445.950745,722.175171 452.960785,722.701355 460.017334,721.075195 
	C475.413116,717.527222 486.561279,708.847351 495.159821,695.603760 
	C504.001160,681.986267 506.188232,667.064148 507.052948,651.502930 
	C507.502777,643.408142 508.224823,635.349609 505.490753,627.503235 
	C501.330414,615.563416 496.717224,604.078552 485.561798,596.410095 
	C473.993256,588.457764 461.599487,583.459229 447.507294,584.590820 
	C424.388733,586.447205 405.665283,596.841125 392.659149,616.107422 
	C387.060608,624.400635 385.490204,634.440613 384.968903,644.498413 
	C383.993225,663.321777 387.817932,681.053894 397.075684,697.457275 
	C400.320862,703.207336 404.331390,708.576050 411.000000,711.000000 
"/>
<path fill="none" opacity="1.000000" stroke="#000000" stroke-linecap="round" stroke-linejoin="round" stroke-width="3.000000"
	d="
M442.500031,762.000061 
	C443.333344,761.666687 444.169495,761.035828 444.999634,761.043640 
	C464.566895,761.227417 480.141571,751.476196 494.936432,740.414978 
	C512.066101,727.608154 525.205627,711.429688 533.528015,691.511719 
	C539.288574,677.724915 542.139282,663.584290 542.194214,648.500732 
	C542.280029,624.938660 532.414978,605.401245 520.043396,586.471619 
	C511.470978,573.355103 499.221863,564.459351 486.500732,555.998901 
	C477.744781,550.175537 468.166748,546.023743 458.538513,541.909851 
	C455.225983,540.494446 451.675323,540.439697 448.485168,540.252075 
	C435.431183,539.484436 422.416229,540.243469 409.479706,542.901306 
	C392.366913,546.417175 378.562866,555.424927 365.971649,566.969116 
	C356.065918,576.051086 346.868652,585.689514 339.480347,596.987183 
	C331.492218,609.202148 326.958405,622.580383 324.902222,636.986023 
	C324.066467,642.841370 324.257843,648.661072 323.965118,654.498230 
	C323.131317,671.123474 327.813782,686.210205 335.959869,700.522827 
	C345.975555,718.120239 358.620819,733.304932 374.383728,746.142761 
	C382.312134,752.599976 391.348297,756.449036 400.586395,759.758850 
	C406.115509,761.739807 412.485962,761.547974 418.503815,761.941772 
	C424.986969,762.365967 431.505890,762.216003 437.997864,762.542297 
	C442.150604,762.751099 445.893280,764.800354 449.971985,765.636536 
	C460.635406,767.823120 471.222656,770.339111 481.989563,772.065063 
	C489.211121,773.222778 496.322632,775.053589 503.502869,776.485718 
	C511.438812,778.068604 519.516846,778.929077 527.448059,780.300476 
	C536.463867,781.859436 545.565063,783.261475 554.530151,785.371948 
	C568.183960,788.586182 581.832520,791.859924 595.534058,794.843506 
	C602.674011,796.398254 610.183533,796.189819 617.494141,797.049622 
	C622.492065,797.637512 627.449951,798.639648 632.029663,801.003967 
	C635.716370,794.134766 636.271851,786.395935 637.940552,778.986633 
	C640.180603,769.040649 642.041565,759.008118 643.991028,748.998230 
	C647.590088,730.517151 653.122803,712.398682 654.446472,693.496277 
	C654.537231,692.200134 655.256714,691.353027 656.024780,691.066345 
	C664.122986,688.043884 671.739685,683.622253 680.500000,682.500000 
"/>
<path fill="none" opacity="1.000000" stroke="#000000" stroke-linecap="round" stroke-linejoin="round" stroke-width="3.000000"
	d="
M521.500000,684.500000 
	C521.384888,682.244507 521.388184,680.201721 520.212463,677.891846 
	C518.646484,674.815430 520.647705,671.216675 521.580444,668.023499 
	C524.984192,656.371338 526.528442,644.423523 524.763489,632.535095 
	C523.472900,623.841980 520.018738,615.495300 516.046570,607.476929 
	C508.925018,593.101257 499.417267,580.692139 487.010590,570.487122 
	C476.889526,562.162170 465.742676,555.405518 452.949219,552.744141 
	C444.053955,550.893799 434.832855,550.024841 425.457611,551.772522 
	C419.596985,552.865051 413.485992,552.546204 407.470459,553.865173 
	C392.837128,557.073669 380.141266,563.854248 368.492310,572.990173 
	C354.190186,584.207031 345.728882,599.658875 338.148987,615.570984 
	C335.003174,622.174805 333.802094,629.690552 333.096375,637.009277 
	C331.918640,649.223694 332.842834,661.464966 335.138062,673.473633 
	C336.506165,680.631653 338.266815,687.830139 341.500000,694.500000 
"/>
<path fill="none" opacity="1.000000" stroke="#000000" stroke-linecap="round" stroke-linejoin="round" stroke-width="2.000000"
	d="
M175.000000,762.000000 
	C185.662949,775.359497 198.800781,786.094116 212.605194,795.851196 
	C223.864288,803.809143 235.579498,811.231567 248.473648,816.563721 
	C257.654175,820.360229 266.368774,825.108276 275.952118,828.150757 
	C294.174164,833.935852 312.655548,834.420715 331.508148,833.718689 
	C341.112915,833.361023 350.457733,831.462219 359.988586,830.828430 
	C365.721649,830.447083 371.304840,828.198669 376.962524,826.843567 
	C388.903229,823.983582 400.908447,820.827148 411.943207,815.384827 
	C430.338409,806.312256 446.990356,794.506104 461.925873,780.421387 
	C464.416779,778.072510 467.911835,776.810303 469.500000,773.500000 
"/>
<path fill="none" opacity="1.000000" stroke="#000000" stroke-linecap="round" stroke-linejoin="round" stroke-width="3.000000"
	d="
M503.500000,748.500000 
	C504.211456,746.279541 506.401489,745.457397 508.051880,744.599854 
	C522.755249,736.961365 533.272766,724.814087 542.867798,711.901733 
	C547.889099,705.144409 550.865540,697.063904 553.505554,689.001831 
	C555.309814,683.492310 557.382324,678.059998 558.933960,672.481628 
	C560.253662,667.737244 561.504883,662.875488 561.912964,657.992737 
	C563.709656,636.495605 558.761536,616.232666 549.432556,597.032776 
	C542.676819,583.128906 533.826965,570.900574 521.651550,560.817017 
	C509.745056,550.956177 496.382294,543.922485 482.384247,538.287537 
	C473.723267,534.801025 464.184845,533.187134 454.509094,532.782532 
	C447.701233,532.497864 440.942322,530.702576 433.998352,530.954529 
	C430.327820,531.087830 426.769043,533.585510 422.937958,530.903198 
	C427.806702,528.127563 433.468353,527.682678 439.004150,527.035400 
	C456.662659,524.970764 474.204407,525.456055 491.498627,530.005249 
	C497.148468,531.491455 502.183685,534.583740 506.883209,537.677429 
	C516.727783,544.157959 527.058289,549.847107 536.597351,556.867737 
	C549.056396,566.037476 559.873047,576.452576 567.527344,589.984497 
	C568.096741,590.991211 568.522034,592.311340 570.000000,592.500000 
"/>
<path fill="none" opacity="1.000000" stroke="#000000" stroke-linecap="round" stroke-linejoin="round" stroke-width="2.000000"
	d="
M357.000000,185.500000 
	C350.451477,189.421875 350.888672,195.877518 354.048615,203.479782 
	C355.072052,205.941940 357.090088,208.026138 357.919952,210.526566 
	C360.326508,217.777618 357.306305,223.857101 349.459900,225.841461 
	C342.231537,227.669525 335.414337,230.840149 328.394806,232.574097 
	C319.850922,234.684586 311.106049,237.543793 302.001587,236.974640 
	C298.534302,236.757904 295.466400,237.653000 293.028107,240.028854 
	C288.637329,244.307220 283.571472,245.850174 277.491119,245.069046 
	C273.092896,244.503998 272.692017,245.565598 272.893311,250.504349 
	C273.011536,253.405136 271.199066,255.638077 267.996552,255.966431 
	C266.182281,256.152435 264.263885,256.324188 262.511017,255.948639 
	C248.690933,252.987625 235.527618,258.360657 222.000809,259.016754 
	C216.434433,259.286743 213.572586,264.350891 209.049911,266.600342 
	C200.708542,270.749115 192.631088,275.437347 184.522461,280.039581 
	C182.200577,281.357391 179.456696,282.575012 179.512436,286.991547 
	C185.149384,287.143127 190.571869,285.630402 195.991867,284.462219 
	C200.162506,283.563324 204.358536,283.897217 208.493286,284.122925 
	C211.679901,284.296844 212.694809,287.626282 213.926239,290.037659 
	C215.252548,292.634888 216.665924,294.917358 219.748810,295.755524 
	C222.145432,294.304749 222.435257,290.758667 225.229553,288.846497 
	C228.548416,290.817474 232.262177,291.659058 234.865173,287.906464 
	C235.952454,286.338989 236.267227,283.975464 236.921616,281.974365 
	C238.540985,277.022308 240.568161,272.500732 246.504196,272.055908 
	C253.963882,271.496857 261.450806,271.904144 266.372955,278.593475 
	C268.093597,280.931854 267.407379,283.834717 264.559326,286.075409 
	C259.906372,289.735992 254.595245,290.535339 249.005997,291.063507 
	C245.332565,291.410645 241.385925,289.558289 237.976822,292.472900 
	C235.914017,294.236481 234.021561,296.429871 234.653305,298.961761 
	C235.462067,302.203217 238.684341,301.933655 241.496796,302.067444 
	C243.798233,302.176849 245.801346,301.125397 248.010498,300.940582 
	C249.878754,302.742432 249.494659,305.359344 248.833954,306.930145 
	C247.158401,310.913605 248.625595,314.390686 249.531128,317.992188 
	C250.647491,322.432251 249.386826,325.190887 244.989960,325.941162 
	C236.023514,327.471130 226.986206,328.581848 218.006866,330.042236 
	C214.465012,330.618256 210.955063,331.517334 207.515793,332.552490 
	C205.223877,333.242310 204.109818,335.205963 203.470840,337.491852 
	C202.947189,339.365143 202.318512,341.241455 201.461594,342.981079 
	C200.388245,345.160065 199.784363,348.226868 196.506729,347.926544 
	C193.433228,347.644897 191.637543,344.752625 191.180542,342.463959 
	C189.766312,335.381256 185.609207,333.449036 178.993561,333.906982 
	C174.355301,334.228088 171.507980,331.195099 171.000015,326.500000 
	C170.514496,322.012573 167.129654,319.510559 162.496567,319.964996 
	C159.709793,320.238342 157.446991,318.821808 154.927643,317.656433 
	C146.782166,313.888672 147.027542,313.175537 140.498550,319.998596 
	C140.009781,320.509369 139.498291,320.998322 139.000290,321.500305 
	C137.379440,323.134125 137.379974,323.134644 133.719254,321.905762 
	C137.652939,312.921692 141.623322,303.980988 145.485550,294.993805 
	C148.726135,287.453125 153.957840,281.130341 158.690887,274.639191 
	C164.409973,266.795746 169.438461,258.384399 176.430130,251.429764 
	C181.887329,246.001450 187.565384,240.823776 193.558365,236.073639 
	C208.661057,224.103027 224.294098,212.937439 241.424545,203.857635 
	C252.087646,198.205780 263.169739,193.888168 274.500000,190.000000 
"/>
<path fill="none" opacity="1.000000" stroke="#000000" stroke-linecap="round" stroke-linejoin="round" stroke-width="2.000000"
	d="
M311.500000,78.000000 
	C299.482330,71.180550 286.875732,69.060013 272.971771,70.770439 
	C257.079376,72.725464 243.878723,79.773743 232.168411,89.698715 
	C226.540924,94.468254 222.556641,101.147614 219.888245,108.459213 
	C217.142166,115.983650 213.938889,122.988029 213.654083,131.488403 
	C213.306015,141.876785 217.013718,150.550476 221.633743,158.926224 
	C230.659332,175.288940 245.757080,182.963043 263.455658,187.185852 
	C274.062683,189.716629 284.070068,188.106964 293.953033,185.332733 
	C303.203888,182.735977 312.684418,182.610397 322.000000,181.000000 
"/>
<path fill="none" opacity="1.000000" stroke="#000000" stroke-linecap="round" stroke-linejoin="round" stroke-width="3.000000"
	d="
M205.000000,441.000000 
	C205.669556,446.568146 203.287048,451.659210 202.458862,456.993622 
	C200.075485,472.345062 197.542862,487.673798 194.987656,502.997925 
	C192.551712,517.606934 189.921646,532.185852 188.960953,546.997437 
	C188.938019,547.350952 188.333389,547.666748 187.588913,548.411194 
	C179.037125,537.913635 170.518555,527.456787 162.000000,517.000000 
"/>
<path fill="none" opacity="1.000000" stroke="#000000" stroke-linecap="round" stroke-linejoin="round" stroke-width="3.000000"
	d="
M522.500000,275.000000 
	C524.083496,278.279266 526.829102,280.671997 528.970825,283.521942 
	C535.832458,292.652832 542.307007,301.937744 546.116638,312.959686 
	C549.615295,323.081909 552.590515,333.362396 556.068787,343.476349 
	C559.845154,354.457245 562.587219,365.711365 564.761414,377.045776 
	C565.584534,381.336517 566.069641,385.970490 565.999268,390.500000 
	C565.796387,403.561188 566.983582,416.576996 563.240723,429.569336 
	C560.510071,439.048157 560.777161,449.367737 558.298462,458.947876 
	C555.358887,470.309814 551.908081,481.659637 546.000000,492.000000 
"/>
<path fill="none" opacity="1.000000" stroke="#000000" stroke-linecap="round" stroke-linejoin="round" stroke-width="3.000000"
	d="
M313.500000,528.500000 
	C309.247131,543.571045 307.896759,559.178406 305.007660,574.501465 
	C304.946960,574.823303 304.996155,575.166748 305.000580,575.500000 
	C305.237274,593.381531 302.291077,610.921875 299.565430,628.510132 
	C297.285950,643.219360 294.309937,657.817017 292.200043,672.528687 
	C290.688385,683.069092 288.635132,693.495544 286.923462,703.987488 
	C286.420776,707.068665 285.000031,710.000000 284.000031,713.000000 
"/>
<path fill="none" opacity="1.000000" stroke="#000000" stroke-linecap="round" stroke-linejoin="round" stroke-width="2.000000"
	d="
M558.500000,559.500000 
	C550.500000,553.500000 542.498901,547.501465 534.500305,541.499634 
	C521.811707,531.978699 507.890778,525.070251 492.513855,520.948303 
	C475.779785,516.462524 459.066437,515.076416 441.968079,518.855591 
	C437.913879,519.751648 433.875916,520.503601 430.000000,522.000000 
"/>
<path fill="none" opacity="1.000000" stroke="#000000" stroke-linecap="round" stroke-linejoin="round" stroke-width="3.000000"
	d="
M134.000000,323.500000 
	C130.353592,328.215942 129.531647,334.053894 128.111496,339.528931 
	C125.011406,351.480499 122.408821,363.470245 121.759644,375.987549 
	C121.033485,389.989136 119.222908,404.002136 120.212204,417.984985 
	C120.863213,427.186340 120.435921,436.752899 124.500000,445.500000 
	C122.170563,454.322784 127.509285,462.031036 128.307022,470.470978 
	C128.867737,476.403137 129.838287,482.907837 134.000000,488.000000 
"/>
<path fill="none" opacity="1.000000" stroke="#000000" stroke-linecap="round" stroke-linejoin="round" stroke-width="2.000000"
	d="
M159.500000,532.500000 
	C164.160614,536.101501 166.832626,541.417969 170.848785,545.643738 
	C177.542694,552.687012 185.059265,558.770935 192.055862,565.441406 
	C198.120422,571.223328 204.205261,577.184448 211.109009,581.838318 
	C221.257996,588.679810 230.825363,596.522522 242.453705,601.117188 
	C247.891006,603.265564 252.823013,606.685730 258.003021,609.494446 
	C262.909973,612.155151 268.042725,614.250732 273.500000,615.500000 
"/>
<path fill="none" opacity="1.000000" stroke="#000000" stroke-linecap="round" stroke-linejoin="round" stroke-width="3.000000"
	d="
M423.000000,595.500000 
	C423.659637,597.730225 424.071350,599.872437 422.517700,602.012878 
	C414.012787,613.730347 410.334961,627.665894 406.360260,641.106567 
	C402.588074,653.862366 401.523224,667.639404 403.279144,680.963196 
	C404.384216,689.348145 406.100098,698.103699 411.080963,705.445068 
	C412.348969,707.313965 411.906830,708.776001 411.500000,710.500000 
"/>
<path fill="none" opacity="1.000000" stroke="#000000" stroke-linecap="round" stroke-linejoin="round" stroke-width="2.000000"
	d="
M683.000000,675.500000 
	C685.238708,672.344910 684.809204,668.219971 686.870911,664.919373 
	C687.413574,664.050598 687.561218,662.164795 685.555542,660.911194 
	C673.053162,653.096252 660.035889,647.245300 645.019836,645.794434 
	C636.468140,644.968201 627.915100,643.119019 619.414246,641.432129 
	C609.937134,639.551575 600.347839,636.851257 590.502014,637.085510 
	C587.445129,637.158142 584.599182,634.881592 580.882446,636.661621 
	C581.367310,640.666687 581.025879,644.783081 581.346252,649.011658 
	C581.839905,655.526489 581.158813,662.005798 579.763489,668.556152 
	C578.558655,674.212402 576.768799,679.560913 575.073303,685.022766 
	C572.198425,694.284302 566.200439,701.596558 560.408508,708.927734 
	C551.670410,719.987854 540.719116,728.773010 528.958008,736.435547 
	C522.021179,740.955078 515.106934,746.229736 507.393280,748.661438 
	C496.738312,752.020325 486.792542,757.793579 475.490906,758.907776 
	C471.176941,759.333069 466.911896,760.688049 462.500000,760.000000 
"/>
<path fill="none" opacity="1.000000" stroke="#000000" stroke-linecap="round" stroke-linejoin="round" stroke-width="3.000000"
	d="
M308.000000,517.000000 
	C302.500000,517.952209 297.093231,515.465454 291.469879,516.880310 
	C287.135315,517.970886 285.561035,520.144592 284.873047,524.479858 
	C283.054443,535.939636 282.654022,547.640991 280.482574,558.900208 
	C279.224823,565.421936 280.961761,572.411621 277.502228,578.501282 
	C277.318420,578.824829 276.931366,579.306152 277.034210,579.479736 
	C280.076538,584.613098 276.496124,589.487366 276.416473,594.498657 
	C276.253571,604.752991 273.991058,614.813965 272.815674,624.978699 
	C270.761749,642.740784 268.778259,660.536865 264.620483,678.028625 
	C261.537262,690.999695 258.240326,704.096069 258.161621,717.500977 
	C258.100494,727.911865 263.450500,731.088135 270.463257,733.126404 
	C283.958344,737.048767 297.710144,739.905701 311.535553,741.730713 
	C322.912964,743.232666 334.204468,745.356750 345.430145,747.386292 
	C354.429138,749.013306 363.653625,749.413574 372.532410,751.883484 
	C374.991516,752.567505 377.872955,752.300537 380.500000,751.500000 
"/>
<path fill="none" opacity="1.000000" stroke="#000000" stroke-linecap="round" stroke-linejoin="round" stroke-width="4.000000"
	d="
M365.000000,625.500000 
	C362.230347,634.989075 359.806458,644.544434 359.500946,654.500000 
	C358.946869,672.558472 365.223450,688.336548 376.618042,701.900879 
	C384.241577,710.976074 391.940430,720.332397 403.483734,725.039917 
	C403.944366,725.227722 404.166656,726.000000 404.500000,726.500000 
"/>
<path fill="none" opacity="1.000000" stroke="#000000" stroke-linecap="round" stroke-linejoin="round" stroke-width="2.000000"
	d="
M341.999969,695.500000 
	C345.999969,702.500000 349.718353,709.680115 354.056702,716.463684 
	C364.075562,732.129578 379.212646,740.702881 396.507965,745.973816 
	C407.419617,749.299377 418.406830,751.811707 429.993286,752.200195 
	C441.231201,752.576965 451.139038,749.840637 460.512665,744.020386 
	C470.504486,737.816162 480.755249,732.011414 489.505280,724.005737 
	C502.463654,712.149658 511.477509,697.664307 518.021484,681.508728 
	C518.184448,681.106384 518.666687,680.833313 519.000000,680.500000 
"/>
<path fill="none" opacity="1.000000" stroke="#000000" stroke-linecap="round" stroke-linejoin="round" stroke-width="3.000000"
	d="
M321.500000,346.000000 
	C322.867340,347.829926 324.822021,346.927032 326.500793,346.961792 
	C335.174835,347.141266 343.920074,345.962219 352.491516,348.035034 
	C358.645203,349.523132 365.141418,350.634796 367.531281,357.989838 
	C368.400116,360.663666 367.993896,363.346069 367.935150,365.998566 
	C367.853027,369.705597 368.125153,372.556488 372.439850,374.161652 
	C375.739655,375.389191 377.049896,378.641876 377.078644,382.499420 
	C377.145660,391.490509 379.236847,399.995605 384.654938,407.567078 
	C387.269012,406.862579 388.833344,404.775818 389.965759,402.483093 
	C395.928406,390.411194 405.274689,380.947388 414.000000,371.000000 
	C422.226196,368.404755 427.157440,360.052399 435.995453,358.474609 
	C440.533997,357.664368 443.169556,360.014771 441.899689,364.471405 
	C441.163849,367.053986 440.795624,369.377045 441.458801,372.010376 
	C442.970581,378.013306 446.718628,381.446075 453.002808,381.966125 
	C455.496735,382.172516 458.022034,382.000000 461.186096,382.000000 
	C460.376495,378.223022 461.432129,375.588684 464.496552,373.993378 
	C466.566650,372.915710 466.610748,370.933258 466.477295,369.001556 
	C466.288208,366.264954 467.844971,364.170532 469.069214,362.039764 
	C470.061462,360.312897 471.666656,360.537018 473.457367,362.469788 
	C466.860779,367.022827 471.467163,373.364349 471.231842,379.009674 
	C471.050751,383.354309 482.531281,390.126038 486.974121,388.905792 
	C488.470978,388.494690 489.674652,388.447327 490.998474,389.003632 
	C494.642517,390.535034 498.063141,391.089294 501.020142,387.516663 
	C504.406799,383.424988 504.566345,380.407074 502.054230,375.472382 
	C500.060272,371.555695 496.967621,368.523376 494.489075,365.007690 
	C493.049225,362.965302 491.133514,361.177094 490.066071,358.968079 
	C486.273041,351.118835 491.380066,345.380005 501.499176,346.013153 
	C507.520111,346.389832 513.469116,345.203064 518.930847,343.301300 
	C527.627563,340.273102 528.141052,336.326691 526.398132,327.019073 
	C525.201843,320.630127 526.918640,316.013275 532.007141,315.585052 
	C534.130737,315.406372 536.394104,315.954163 538.485107,316.552155 
	C541.288269,317.353882 544.076111,318.013031 547.000000,318.000000 
"/>
<path fill="none" opacity="1.000000" stroke="#000000" stroke-linecap="round" stroke-linejoin="round" stroke-width="3.000000"
	d="
M426.500000,511.000000 
	C432.202393,507.437531 437.763367,503.772369 443.864990,500.729309 
	C452.691437,496.327332 461.045776,497.896484 469.469116,500.117096 
	C480.218018,502.950714 491.097351,504.999573 502.003510,506.980713 
	C513.487854,509.066864 525.029175,510.850311 536.483643,513.083984 
	C540.318909,513.831848 544.197510,513.763672 548.000000,514.500000 
"/>
<path fill="none" opacity="1.000000" stroke="#000000" stroke-linecap="round" stroke-linejoin="round" stroke-width="3.000000"
	d="
M592.500000,581.000000 
	C605.248962,583.797241 618.245117,585.451050 630.937195,588.281616 
	C642.448486,590.848816 654.042236,593.570374 665.574341,595.571655 
	C679.498596,597.987976 690.164001,605.885437 702.048950,611.903320 
	C706.067627,613.938110 706.539307,616.925842 705.956421,620.492859 
	C704.494385,629.439697 702.522278,638.268860 700.069336,647.019409 
	C696.305664,660.445496 692.834717,673.959839 689.540466,687.509827 
	C685.075989,705.873230 682.141602,724.583801 677.796082,742.951782 
	C673.960266,759.165588 671.881165,775.538635 670.021362,792.002441 
	C669.965820,792.494324 670.227417,793.022095 670.415649,793.867798 
	C662.710876,795.227478 654.888977,796.872437 646.986755,797.897766 
	C642.624146,798.463745 638.534180,800.638794 634.000000,800.000000 
"/>
<path fill="none" opacity="1.000000" stroke="#000000" stroke-linecap="round" stroke-linejoin="round" stroke-width="3.000000"
	d="
M312.500000,491.000000 
	C315.281677,493.838806 319.178711,493.295654 322.523865,493.857971 
	C332.916016,495.605103 343.359924,496.995209 353.500916,499.996857 
	C365.453156,503.534637 377.926117,504.640198 389.966309,507.635498 
	C399.893066,510.105042 410.112152,510.535767 420.016693,512.930969 
	C421.395752,513.264404 423.000000,512.666687 424.500000,512.500000 
"/>
<path fill="none" opacity="1.000000" stroke="#000000" stroke-linecap="round" stroke-linejoin="round" stroke-width="3.000000"
	d="
M289.000000,519.000000 
	C295.177734,522.047363 302.331421,522.105225 308.465973,525.070374 
	C319.288666,530.301636 331.123474,532.146851 342.582184,534.619080 
	C352.416077,536.740784 362.379822,538.909912 372.472137,540.215332 
	C379.817383,541.165466 387.418091,541.283936 394.500000,544.000000 
"/>
<path fill="none" opacity="1.000000" stroke="#000000" stroke-linecap="round" stroke-linejoin="round" stroke-width="3.000000"
	d="
M613.500000,621.000000 
	C617.224426,619.648560 621.142883,619.016235 623.106567,614.546814 
	C625.630798,608.801636 625.831421,605.084839 621.960876,601.037415 
	C617.758545,596.643066 610.760254,594.765198 606.014160,596.537842 
	C604.424622,597.131531 602.925415,598.057312 601.514160,599.020691 
	C597.488281,601.768921 595.040466,606.530396 596.000061,609.500000 
	C597.851929,615.230957 603.120300,619.922791 608.000305,619.957153 
	C609.782410,619.969727 611.370728,620.479675 613.000000,621.000000 
"/>
<path fill="none" opacity="1.000000" stroke="#000000" stroke-linecap="round" stroke-linejoin="round" stroke-width="3.000000"
	d="
M706.000000,613.500000 
	C708.030518,604.924072 701.959839,601.250671 695.930847,598.661011 
	C686.504028,594.611877 677.396973,589.588196 667.009949,587.937256 
	C659.491455,586.742188 652.111328,584.804993 644.511475,583.903503 
	C638.786926,583.224548 633.215881,581.170654 627.489807,580.602905 
	C615.449890,579.409058 603.832947,576.168823 592.000000,574.000000 
"/>
<path fill="none" opacity="1.000000" stroke="#000000" stroke-linecap="round" stroke-linejoin="round" stroke-width="3.000000"
	d="
M408.500000,165.500000 
	C419.333344,170.333328 430.139954,175.227921 441.013367,179.969360 
	C445.265045,181.823318 449.639740,183.408310 454.008362,184.976685 
	C457.613739,186.271042 459.544556,188.203781 459.091064,192.509598 
	C458.269653,200.309067 458.000000,208.166672 457.500000,216.000000 
"/>
<path fill="none" opacity="1.000000" stroke="#000000" stroke-linecap="round" stroke-linejoin="round" stroke-width="2.000000"
	d="
M474.500000,629.500000 
	C469.332520,642.710144 462.415955,648.137085 447.508759,646.894897 
	C440.537048,646.313904 435.656250,641.522217 432.085144,635.945496 
	C427.023987,628.041931 425.004211,619.657410 429.421661,610.462341 
	C432.607880,603.830078 437.855469,599.333740 444.538605,598.234863 
	C456.463989,596.274231 465.207947,599.179199 472.055481,611.096558 
	C468.376831,613.726379 464.572876,616.217285 461.022186,619.028015 
	C451.375183,626.664856 447.641266,637.295471 445.385834,648.977966 
	C442.754822,662.605408 444.483368,675.386902 449.924805,688.032349 
	C454.457886,698.566772 462.954437,704.131042 473.043854,707.882019 
	C474.540955,708.438599 475.817627,709.031433 477.000000,710.000000 
"/>
<path fill="none" opacity="1.000000" stroke="#000000" stroke-linecap="round" stroke-linejoin="round" stroke-width="2.000000"
	d="
M206.000000,436.500000 
	C206.488174,440.372498 200.658356,439.633545 200.959244,443.503174 
	C201.186142,446.420807 199.956802,448.893005 198.613403,451.557190 
	C189.290268,470.046661 177.839355,487.310577 167.812851,505.396240 
	C162.927078,514.209106 158.872665,523.284485 155.042282,532.517517 
	C153.306976,536.700500 153.750854,541.709412 150.922729,545.441467 
	C148.782547,548.265625 148.410492,551.243652 148.500000,554.500000 
"/>
<path fill="none" opacity="1.000000" stroke="#000000" stroke-linecap="round" stroke-linejoin="round" stroke-width="2.000000"
	d="
M605.000000,210.000000 
	C607.820251,217.078445 613.228149,222.522568 617.363037,229.011856 
	C614.715881,233.767532 609.864563,235.843185 605.876160,238.298828 
	C597.254822,243.606934 590.563416,251.124222 582.504272,257.005829 
	C576.149719,261.643463 569.901733,266.430695 563.466431,270.952148 
	C560.884399,272.766296 559.419922,274.719818 559.970703,278.004913 
	C560.585876,281.673584 559.202820,284.313873 556.058655,286.581329 
	C551.170044,290.106903 546.666687,294.166656 542.000000,298.000000 
"/>
<path fill="none" opacity="1.000000" stroke="#000000" stroke-linecap="round" stroke-linejoin="round" stroke-width="2.000000"
	d="
M440.000000,208.000000 
	C441.740143,211.540680 440.625732,214.638443 439.093658,218.042160 
	C435.913605,225.107101 437.758087,227.984833 445.453857,231.113525 
	C449.154236,232.617935 453.624878,233.248947 455.180664,238.445908 
	C456.165588,241.735962 460.188965,240.208572 461.894867,239.302139 
	C466.020294,237.110046 469.334167,237.801208 473.023499,239.959824 
	C478.422211,243.118576 484.714355,241.721817 490.500000,243.000000 
"/>
<path fill="none" opacity="1.000000" stroke="#000000" stroke-linecap="round" stroke-linejoin="round" stroke-width="2.000000"
	d="
M505.000000,14.000000 
	C502.911377,16.031942 500.924347,18.039778 499.955078,20.985218 
	C496.419952,31.728125 493.290436,42.977951 487.150757,52.269215 
	C480.789642,61.895500 476.255096,72.394867 470.188171,82.117424 
	C463.238251,93.255089 455.779907,104.142433 449.965973,115.983299 
	C449.241669,117.458443 448.053375,118.705780 447.093445,120.040115 
	C445.999146,119.669182 445.000854,119.330795 444.001282,118.996201 
	C442.279175,120.191673 443.099579,121.979515 443.055481,123.501610 
	C443.024536,124.570206 444.055786,125.696915 444.978546,125.426765 
	C451.175140,123.612679 455.568756,128.487030 460.963440,129.667130 
	C465.935181,130.754730 465.799866,131.373230 469.602875,127.392326 
	C466.035522,125.914520 462.517761,124.457260 459.000000,123.000000 
"/>
<path fill="none" opacity="1.000000" stroke="#000000" stroke-linecap="round" stroke-linejoin="round" stroke-width="2.000000"
	d="
M559.000000,449.000000 
	C557.363159,447.586060 555.145935,447.471802 553.544556,448.111511 
	C548.834351,449.993103 543.792603,450.143768 538.964539,451.359161 
	C534.343994,452.522339 529.769287,451.245911 526.001465,447.998291 
	C520.375427,443.148956 516.606873,443.188721 511.024109,448.525238 
	C506.674133,452.683441 502.179352,456.356262 496.019928,457.598816 
	C494.135376,457.979004 492.256775,457.525909 490.513153,458.044250 
	C485.343018,459.581177 482.226868,464.204834 481.968475,469.998596 
	C481.834198,473.008820 482.802216,476.163208 481.000000,479.000000 
"/>
<path fill="none" opacity="1.000000" stroke="#000000" stroke-linecap="round" stroke-linejoin="round" stroke-width="3.000000"
	d="
M454.500000,497.000000 
	C459.796204,490.967010 467.314117,486.911865 470.504761,479.001923 
	C471.226746,477.212036 472.969879,477.761444 473.975494,478.077881 
	C483.272980,481.003571 493.096466,480.763123 502.505005,482.978729 
	C508.645142,484.424683 514.834045,485.663391 520.999817,487.000854 
	C528.667236,488.664032 536.359558,490.223114 543.990967,492.037964 
	C549.258728,493.290680 552.841797,497.570312 557.451538,500.088684 
	C564.611572,504.000305 572.251160,506.822327 579.502136,510.495819 
	C583.823853,512.685303 588.215454,514.743958 592.465759,517.062805 
	C593.528320,517.642517 594.752441,518.918579 594.904663,520.013245 
	C595.869995,526.957947 599.757690,532.429199 603.500000,538.000000 
"/>
<path fill="none" opacity="1.000000" stroke="#000000" stroke-linecap="round" stroke-linejoin="round" stroke-width="2.000000"
	d="
M592.000000,227.499969 
	C584.833313,231.999969 577.631836,236.445679 570.508606,241.013412 
	C561.125854,247.030060 551.660461,252.934036 543.100037,260.154144 
	C547.510559,265.589142 552.561218,270.492767 559.500000,273.000000 
"/>
<path fill="none" opacity="1.000000" stroke="#000000" stroke-linecap="round" stroke-linejoin="round" stroke-width="3.000000"
	d="
M585.000000,699.500000 
	C584.943909,707.012329 585.517456,714.552612 583.617798,722.158081 
	C589.086060,724.322327 594.620728,725.011047 600.019409,725.879333 
	C605.977173,726.837646 608.016357,724.717224 609.020935,718.503357 
	C609.860657,713.309631 610.884216,708.145630 611.957947,702.244873 
	C603.411560,701.176514 594.705811,700.088257 586.000000,698.999939 
"/>
<path fill="none" opacity="1.000000" stroke="#000000" stroke-linecap="round" stroke-linejoin="round" stroke-width="3.000000"
	d="
M259.500000,707.999939 
	C271.000000,710.666626 282.572998,713.057678 293.979126,716.078735 
	C305.011810,719.001038 316.300415,720.174744 327.490234,722.057983 
	C333.980682,723.150208 340.660858,722.860901 347.024994,724.922913 
	C348.182800,725.297974 349.666656,724.666626 351.000000,724.499939 
"/>
<path fill="none" opacity="1.000000" stroke="#000000" stroke-linecap="round" stroke-linejoin="round" stroke-width="2.000000"
	d="
M560.000000,180.000000 
	C567.140076,173.594376 574.032471,166.958710 580.050964,158.985886 
	C567.706238,156.557190 561.442993,145.743942 551.566528,140.858856 
	C551.230103,139.003387 552.680786,138.244156 553.014282,137.016800 
	C551.333313,135.032516 549.625305,136.118591 548.007202,137.013031 
	C541.265442,140.739716 535.715393,146.048813 530.603271,151.595184 
	C522.577942,160.302246 514.118103,168.475967 505.004486,176.005417 
	C503.639191,177.133392 502.441162,178.495102 500.979584,179.469330 
	C496.785919,182.264709 494.002869,186.557083 488.592468,188.288849 
	C482.527954,190.229935 481.274323,197.171707 479.158569,202.562241 
	C478.240723,204.900803 478.639771,207.176804 474.999390,207.163254 
	C473.281891,207.156830 472.201019,209.501083 470.941528,210.949142 
	C468.939026,213.251450 467.833984,216.500641 464.500000,217.500000 
"/>
<path fill="none" opacity="1.000000" stroke="#000000" stroke-linecap="round" stroke-linejoin="round" stroke-width="2.000000"
	d="
M200.000015,445.000031 
	C191.000015,454.833344 181.645203,464.370056 173.103928,474.586884 
	C165.212921,484.025909 156.521561,492.707611 148.549667,502.042419 
	C145.548233,505.556915 142.156967,507.485291 137.500366,507.534454 
	C127.833344,507.636444 118.195045,509.479095 108.500000,508.000000 
"/>
<path fill="none" opacity="1.000000" stroke="#000000" stroke-linecap="round" stroke-linejoin="round" stroke-width="3.000000"
	d="
M391.000000,483.000000 
	C381.666656,480.500000 372.325562,478.028534 363.004608,475.483093 
	C360.105072,474.691284 357.904480,474.313660 357.380371,478.484955 
	C357.044861,481.155212 356.174255,483.970215 354.070984,485.934021 
	C349.840668,485.283203 345.669312,484.647980 341.500336,483.997833 
	C338.365784,483.509064 336.486938,484.567017 336.500000,488.000000 
"/>
<path fill="none" opacity="1.000000" stroke="#000000" stroke-linecap="round" stroke-linejoin="round" stroke-width="2.000000"
	d="
M444.500000,208.500000 
	C444.499542,201.081436 442.298859,194.181519 438.419220,188.051117 
	C431.478607,177.083878 412.035004,176.914932 402.939941,184.427277 
	C401.180359,185.880646 400.996643,187.384552 401.000000,189.250000 
"/>
<path fill="none" opacity="1.000000" stroke="#000000" stroke-linecap="round" stroke-linejoin="round" stroke-width="3.000000"
	d="
M631.000000,645.000000 
	C627.559998,655.473328 625.979126,666.405090 623.243652,677.062561 
	C619.888672,690.133606 618.281311,703.658020 616.062927,717.010437 
	C615.770996,718.767578 616.333313,720.666687 616.500000,722.500000 
"/>
<path fill="none" opacity="1.000000" stroke="#000000" stroke-linecap="round" stroke-linejoin="round" stroke-width="3.000000"
	d="
M671.000000,775.000000 
	C661.666687,775.500000 652.221436,775.290710 643.037659,776.738953 
	C636.453003,777.777283 630.564453,775.536316 624.552917,774.643738 
	C616.207092,773.404419 607.804382,771.770447 599.462280,770.200439 
	C591.463928,768.695129 583.465698,767.191162 575.496094,765.518494 
	C566.237854,763.575439 556.867554,762.305847 547.521240,760.862488 
	C538.490417,759.467712 529.444763,758.017700 520.457581,756.210999 
	C514.211853,754.955444 507.839905,753.958313 501.500000,753.000000 
"/>
<path fill="none" opacity="1.000000" stroke="#000000" stroke-linecap="round" stroke-linejoin="round" stroke-width="2.000000"
	d="
M602.500000,208.000000 
	C588.222046,218.483337 573.716553,228.638626 559.030518,238.545258 
	C553.012512,242.604797 547.333313,247.166656 541.500000,251.500000 
"/>
<path fill="none" opacity="1.000000" stroke="#000000" stroke-linecap="round" stroke-linejoin="round" stroke-width="2.000000"
	d="
M360.000000,109.000000 
	C358.613800,113.500000 359.995789,118.000748 360.022125,122.499870 
	C360.137360,142.166840 360.337097,161.833298 360.478577,181.500153 
	C360.482117,181.998917 360.166656,182.499985 359.999969,182.999985 
"/>
<path fill="none" opacity="1.000000" stroke="#000000" stroke-linecap="round" stroke-linejoin="round" stroke-width="2.000000"
	d="
M200.000000,443.000000 
	C194.965820,443.257416 191.721649,447.130249 188.122086,449.672852 
	C170.290253,462.268341 152.081100,474.333893 134.893829,487.865143 
	C126.354256,494.588196 116.600449,499.750214 108.000000,506.500000 
"/>
<path fill="none" opacity="1.000000" stroke="#000000" stroke-linecap="round" stroke-linejoin="round" stroke-width="3.000000"
	d="
M662.500000,667.500000 
	C669.356750,670.617432 676.213440,673.734924 683.011902,676.825928 
	C679.662903,691.251953 675.359375,705.257141 671.657898,719.410522 
	C667.885437,733.835266 666.518860,748.602905 663.098633,763.023376 
	C662.185120,766.874817 663.740295,771.117249 662.000000,775.000000 
"/>
<path fill="none" opacity="1.000000" stroke="#000000" stroke-linecap="round" stroke-linejoin="round" stroke-width="3.000000"
	d="
M455.500000,128.500000 
	C446.309601,136.309601 437.784912,144.784912 429.673889,153.915359 
	C424.853363,150.565201 418.584412,150.946365 412.733032,148.738297 
	C411.470215,152.604706 411.835571,156.295563 412.500000,160.000000 
"/>
<path fill="none" opacity="1.000000" stroke="#000000" stroke-linecap="round" stroke-linejoin="round" stroke-width="3.000000"
	d="
M543.000000,493.000000 
	C542.990356,498.274475 544.387024,503.236633 546.514099,507.993683 
	C552.447327,521.262634 564.626953,528.828796 574.349304,538.860352 
	C571.778320,549.504211 571.923828,560.811646 571.051575,572.004028 
	C570.507446,578.985596 571.682983,586.067261 569.991394,592.997925 
	C569.426636,595.311890 571.748962,596.342041 572.198120,598.457947 
	C574.159973,607.699707 577.490356,616.590332 579.311096,625.939392 
	C579.923950,629.086426 578.560608,632.706543 581.000000,635.500000 
"/>
<path fill="none" opacity="1.000000" stroke="#000000" stroke-linecap="round" stroke-linejoin="round" stroke-width="3.000000"
	d="
M279.000000,131.500000 
	C279.552887,139.633011 283.136566,147.069382 284.449585,155.008331 
	C285.848785,163.468445 289.060425,171.266235 292.570099,178.968063 
	C293.146118,180.232086 292.733826,181.347549 293.000000,182.500000 
"/>
<path fill="none" opacity="1.000000" stroke="#000000" stroke-linecap="round" stroke-linejoin="round" stroke-width="3.000000"
	d="
M423.500000,511.000000 
	C413.726074,506.359131 403.464630,503.051361 392.984619,500.564850 
	C378.546051,497.139191 364.019623,494.072968 349.493256,491.032196 
	C339.440796,488.927979 329.411469,486.593506 318.998657,486.961639 
	C313.007599,487.173431 311.643158,488.229492 311.010223,494.501038 
	C310.136017,503.163574 309.333344,511.833344 308.500000,520.500000 
"/>
<path fill="none" opacity="1.000000" stroke="#000000" stroke-linecap="round" stroke-linejoin="round" stroke-width="3.000000"
	d="
M687.500000,656.000000 
	C682.000000,652.500000 676.598083,648.831360 670.967224,645.556335 
	C666.874817,643.176086 662.006042,643.118835 657.485168,642.063660 
	C652.047974,640.794556 646.323120,640.555725 641.039978,638.874390 
	C632.338318,636.105286 623.225586,635.552734 614.477966,633.077942 
	C603.573547,629.992981 592.360291,628.711853 581.000000,629.000000 
"/>
<path fill="none" opacity="1.000000" stroke="#000000" stroke-linecap="round" stroke-linejoin="round" stroke-width="3.000000"
	d="
M435.500000,504.000000 
	C433.940674,502.000000 434.679108,500.104156 435.449432,497.981659 
	C438.480652,489.629486 437.737366,487.374420 429.473145,486.187012 
	C420.568176,484.907532 412.208557,481.824951 403.529266,479.870056 
	C400.017212,479.079041 396.300171,478.699432 392.757538,476.563110 
	C391.210175,482.013794 391.802216,487.488617 390.000000,492.500000 
"/>
<path fill="none" opacity="1.000000" stroke="#000000" stroke-linecap="round" stroke-linejoin="round" stroke-width="3.000000"
	d="
M348.000000,103.500000 
	C346.598175,106.898239 347.046906,110.477371 347.012878,114.000122 
	C346.962921,119.166306 346.841583,124.339340 347.037201,129.498596 
	C347.329346,137.204102 345.186340,144.791977 346.014130,152.498489 
	C347.068176,162.311676 347.032745,172.154251 347.000000,182.000000 
"/>
<path fill="none" opacity="1.000000" stroke="#000000" stroke-linecap="round" stroke-linejoin="round" stroke-width="3.000000"
	d="
M637.000000,538.000000 
	C636.858826,534.346130 636.982544,530.742676 639.269958,526.914001 
	C627.660583,522.641479 615.196899,522.772156 603.293213,518.901855 
	C603.843811,523.556458 601.890381,527.421448 601.997681,532.129089 
	C605.608276,529.717163 608.661743,531.512817 611.464233,532.155945 
	C619.731079,534.052673 627.896301,536.472168 635.971558,539.087708 
	C639.624695,540.270935 643.016052,542.335510 645.500000,545.500000 
"/>
<path fill="none" opacity="1.000000" stroke="#000000" stroke-linecap="round" stroke-linejoin="round" stroke-width="3.000000"
	d="
M577.500000,163.500000 
	C579.285706,166.182083 577.888855,170.299118 581.894531,172.219940 
	C582.985962,172.743317 581.496887,175.315750 580.011780,176.514587 
	C574.036194,181.338409 568.441284,186.583984 562.924683,191.922150 
	C562.550964,192.283768 560.986694,192.509781 561.081970,192.983505 
	C562.516418,200.114044 555.870056,201.403183 552.481018,204.981995 
	C544.106079,213.825760 536.386169,223.232559 528.441467,232.449524 
	C524.526550,236.991302 521.294067,242.250732 516.000000,245.500000 
"/>
<path fill="none" opacity="1.000000" stroke="#000000" stroke-linecap="round" stroke-linejoin="round" stroke-width="3.000000"
	d="
M281.500000,564.500000 
	C286.172760,567.725220 291.818573,568.210754 297.005066,569.985229 
	C308.019836,573.753967 319.775757,572.755005 330.971802,575.132751 
	C338.122650,576.651550 345.675110,575.829651 352.500000,579.000000 
"/>
<path fill="none" opacity="1.000000" stroke="#000000" stroke-linecap="round" stroke-linejoin="round" stroke-width="2.000000"
	d="
M596.500000,233.000031 
	C586.500000,240.666702 576.519836,248.359436 566.491760,255.989182 
	C561.372192,259.884369 556.166687,263.666656 551.000000,267.500000 
"/>
<path fill="none" opacity="1.000000" stroke="#000000" stroke-linecap="round" stroke-linejoin="round" stroke-width="3.000000"
	d="
M642.000000,591.500000 
	C639.152161,598.737488 638.564270,606.476929 636.991455,613.998230 
	C635.699951,620.173645 634.949036,626.562683 632.769348,632.414124 
	C631.458130,635.934021 632.423279,639.906677 630.000000,643.000000 
"/>
<path fill="none" opacity="1.000000" stroke="#000000" stroke-linecap="round" stroke-linejoin="round" stroke-width="3.000000"
	d="
M661.500000,667.000000 
	C655.019165,666.633972 648.828125,664.696167 642.496826,663.516907 
	C627.006531,660.631714 611.497192,657.848633 596.001770,654.990234 
	C591.523132,654.164062 587.113647,652.899658 582.500000,653.000000 
"/>
<path fill="none" opacity="1.000000" stroke="#000000" stroke-linecap="round" stroke-linejoin="round" stroke-width="3.000000"
	d="
M677.000000,591.500000 
	C675.242859,594.076782 675.141907,597.277710 675.179932,599.997498 
	C675.285461,607.559448 673.528137,614.748291 671.965637,621.992615 
	C670.421631,629.151062 669.414368,636.398254 667.771057,643.562195 
	C665.649658,652.810791 662.330078,661.763367 660.737549,671.040771 
	C659.607666,677.623535 655.040894,683.427185 656.500000,690.500000 
"/>
<path fill="none" opacity="1.000000" stroke="#000000" stroke-linecap="round" stroke-linejoin="round" stroke-width="3.000000"
	d="
M280.000000,143.500000 
	C279.666687,144.666672 278.985199,145.854416 279.054352,146.996704 
	C279.682220,157.369644 277.286255,167.647964 278.087402,177.993225 
	C278.314636,180.927643 275.805542,183.557190 277.500000,186.500000 
"/>
<path fill="none" opacity="1.000000" stroke="#000000" stroke-linecap="round" stroke-linejoin="round" stroke-width="3.000000"
	d="
M574.500000,540.500000 
	C576.753967,541.467834 578.817078,540.393799 581.012451,540.090027 
	C594.145508,538.273376 607.141724,538.262634 620.036804,542.384949 
	C627.483398,544.765564 635.435425,545.278198 643.040894,547.349976 
	C646.578430,548.313538 646.024475,543.552551 648.210938,541.832764 
	C652.871277,543.191895 657.731934,544.456604 662.487915,546.036316 
	C668.083191,547.894836 668.453552,548.709595 667.500000,554.500000 
"/>
<path fill="none" opacity="1.000000" stroke="#000000" stroke-linecap="round" stroke-linejoin="round" stroke-width="2.000000"
	d="
M654.000000,693.000000 
	C645.500122,696.289001 638.727966,702.125305 632.012634,708.014404 
	C626.515503,712.835205 621.937195,718.607849 616.141785,723.179749 
	C614.879395,724.175598 613.640198,726.644226 613.468018,728.997681 
	C612.436401,743.098938 609.831909,756.999817 608.000000,771.000000 
"/>
<path fill="none" opacity="1.000000" stroke="#000000" stroke-linecap="round" stroke-linejoin="round" stroke-width="2.000000"
	d="
M326.500000,81.000000 
	C318.999847,87.170868 319.011810,89.639107 323.829559,97.603104 
	C326.430542,101.902649 330.153412,100.418373 332.394531,99.679932 
	C335.788086,98.561760 338.928467,95.750290 340.495148,91.997978 
	C342.578339,87.008591 341.709167,84.317451 337.000000,81.000000 
"/>
<path fill="none" opacity="1.000000" stroke="#000000" stroke-linecap="round" stroke-linejoin="round" stroke-width="2.000000"
	d="
M486.500000,55.000000 
	C487.107483,60.261574 484.474792,64.766045 482.946625,69.482704 
	C476.967865,87.935715 470.895660,106.360924 464.000000,124.500000 
"/>
<path fill="none" opacity="1.000000" stroke="#000000" stroke-linecap="round" stroke-linejoin="round" stroke-width="2.000000"
	d="
M613.000000,729.500000 
	C603.121338,740.359497 597.121704,753.106812 594.487122,767.497620 
	C594.422607,767.849670 594.166687,768.166687 594.000000,768.500000 
"/>
<path fill="none" opacity="1.000000" stroke="#000000" stroke-linecap="round" stroke-linejoin="round" stroke-width="2.000000"
	d="
M432.500000,563.500000 
	C418.134918,567.572449 404.783264,573.697754 393.000000,583.000000 
"/>
<path fill="none" opacity="1.000000" stroke="#000000" stroke-linecap="round" stroke-linejoin="round" stroke-width="3.000000"
	d="
M476.500000,208.000000 
	C483.355835,216.957123 491.043274,225.097427 499.987701,232.015884 
	C500.912384,232.731110 501.666656,233.666687 502.628784,234.628815 
	C498.843536,236.722595 496.804840,240.473083 494.000000,243.500000 
"/>
<path fill="none" opacity="1.000000" stroke="#000000" stroke-linecap="round" stroke-linejoin="round" stroke-width="2.000000"
	d="
M125.000008,446.500000 
	C127.833336,448.000000 130.602661,449.639893 133.513046,450.971497 
	C140.002701,453.940735 143.858658,458.280273 144.229156,465.988983 
	C144.426071,470.086060 143.630844,474.605743 146.000000,478.500000 
"/>
<path fill="none" opacity="1.000000" stroke="#000000" stroke-linecap="round" stroke-linejoin="round" stroke-width="2.000000"
	d="
M403.500000,191.000000 
	C413.811920,195.384415 424.565369,198.574036 434.569824,203.868027 
	C448.242676,211.103165 461.206238,219.344803 474.096771,227.853394 
	C485.072815,235.098312 493.535034,244.790817 502.395630,254.099350 
	C508.572266,260.588165 514.705078,267.121674 521.000000,273.500000 
"/>
<path fill="none" opacity="1.000000" stroke="#000000" stroke-linecap="round" stroke-linejoin="round" stroke-width="2.000000"
	d="
M355.500000,486.000000 
	C361.332733,488.026855 367.562408,488.034058 373.494354,489.522491 
	C378.669250,490.820953 384.051117,491.322723 389.000000,493.500000 
"/>
<path fill="none" opacity="1.000000" stroke="#000000" stroke-linecap="round" stroke-linejoin="round" stroke-width="2.000000"
	d="
M143.500000,507.500000 
	C146.471252,511.478790 144.704361,516.187988 145.361191,520.521057 
	C146.664154,529.116516 147.166656,537.833313 147.999985,546.500000 
"/>
<path fill="none" opacity="1.000000" stroke="#000000" stroke-linecap="round" stroke-linejoin="round" stroke-width="3.000000"
	d="
M464.500000,132.000000 
	C465.925690,137.415848 465.904388,143.358200 465.452972,148.451508 
	C464.865326,155.081635 467.748108,161.553375 465.500000,168.000000 
"/>
<path fill="none" opacity="1.000000" stroke="#000000" stroke-linecap="round" stroke-linejoin="round" stroke-width="3.000000"
	d="
M454.500000,130.500000 
	C455.820526,141.333328 455.558960,152.166672 454.500000,163.000000 
"/>
<path fill="none" opacity="1.000000" stroke="#000000" stroke-linecap="round" stroke-linejoin="round" stroke-width="2.000000"
	d="
M697.500000,581.500000 
	C690.736938,574.949768 683.127502,569.419800 675.403076,564.141846 
	C671.977478,561.801208 667.568237,560.755371 663.468811,559.611755 
	C661.647217,559.103516 660.378113,561.424683 658.554443,562.139038 
	C652.452393,564.529114 646.434631,567.224731 641.000000,571.000000 
"/>
<path fill="none" opacity="1.000000" stroke="#000000" stroke-linecap="round" stroke-linejoin="round" stroke-width="2.000000"
	d="
M509.500031,182.500015 
	C502.166687,191.000015 494.827148,199.494675 487.504639,208.003983 
	C485.806702,209.977066 484.166687,212.000000 482.500000,214.000000 
"/>
<path fill="none" opacity="1.000000" stroke="#000000" stroke-linecap="round" stroke-linejoin="round" stroke-width="2.000000"
	d="
M626.500000,549.500000 
	C621.963684,546.346191 616.368042,547.732300 611.500000,546.000000 
	C607.304199,550.436462 600.365479,550.541992 596.500000,555.500000 
"/>
<path fill="none" opacity="1.000000" stroke="#000000" stroke-linecap="round" stroke-linejoin="round" stroke-width="2.000000"
	d="
M646.000000,547.500000 
	C653.701599,550.066223 660.911377,553.998962 668.990173,555.551147 
	C672.324829,556.191772 675.306885,557.825500 678.016113,559.979736 
	C684.800659,565.374390 691.666626,570.666687 698.500000,576.000000 
"/>
<path fill="none" opacity="1.000000" stroke="#000000" stroke-linecap="round" stroke-linejoin="round" stroke-width="2.000000"
	d="
M379.000000,184.499985 
	C390.518066,176.358734 402.036133,168.217468 413.672272,159.992752 
	C428.864960,166.506058 444.305847,172.821365 460.000000,178.500000 
"/>
<path fill="none" opacity="1.000000" stroke="#000000" stroke-linecap="round" stroke-linejoin="round" stroke-width="2.000000"
	d="
M591.000000,544.500000 
	C589.678467,549.549622 591.378540,554.506897 591.425049,559.500671 
	C591.515015,569.164978 591.400391,578.844971 590.919922,588.496033 
	C590.585815,595.205872 586.550049,597.865112 579.495483,597.038757 
	C577.358093,596.788391 575.166687,597.000000 573.000000,597.000000 
"/>
<path fill="none" opacity="1.000000" stroke="#000000" stroke-linecap="round" stroke-linejoin="round" stroke-width="2.000000"
	d="
M532.000000,265.000000 
	C534.816284,269.298950 537.036499,273.943665 540.902649,277.602875 
	C543.055969,279.640961 545.067261,280.803986 547.993164,281.074066 
	C551.307251,281.379974 554.562256,282.275116 557.500000,284.000000 
"/>
<path fill="none" opacity="1.000000" stroke="#000000" stroke-linecap="round" stroke-linejoin="round" stroke-width="2.000000"
	d="
M544.500000,141.000000 
	C554.511414,149.107956 564.317322,157.449554 573.500000,166.500000 
"/>
<path fill="none" opacity="1.000000" stroke="#000000" stroke-linecap="round" stroke-linejoin="round" stroke-width="2.000000"
	d="
M527.000000,157.500000 
	C536.329956,165.823868 546.141541,173.628387 554.500000,183.000000 
"/>
<path fill="none" opacity="1.000000" stroke="#000000" stroke-linecap="round" stroke-linejoin="round" stroke-width="2.000000"
	d="
M530.500000,154.000000 
	C539.430725,162.916199 548.223999,171.977783 558.000000,180.000000 
"/>
<path fill="none" opacity="1.000000" stroke="#000000" stroke-linecap="round" stroke-linejoin="round" stroke-width="3.000000"
	d="
M617.000000,226.500000 
	C619.831299,221.965240 618.785156,216.895660 619.030090,211.792923 
	C614.938843,209.820633 610.318726,209.360794 605.994507,209.273788 
	C603.167419,209.216919 602.973022,208.565674 603.000000,206.500000 
"/>
<path fill="none" opacity="1.000000" stroke="#000000" stroke-linecap="round" stroke-linejoin="round" stroke-width="2.000000"
	d="
M528.000000,206.000000 
	C519.011719,214.614426 512.450562,225.352570 503.500000,234.000000 
"/>
<path fill="none" opacity="1.000000" stroke="#000000" stroke-linecap="round" stroke-linejoin="round" stroke-width="3.000000"
	d="
M422.500000,532.000000 
	C415.630646,532.476257 409.676697,535.688171 404.103516,539.165894 
	C400.179840,541.614319 394.964081,542.365051 392.500000,547.000000 
"/>
<path fill="none" opacity="1.000000" stroke="#000000" stroke-linecap="round" stroke-linejoin="round" stroke-width="3.000000"
	d="
M346.500000,585.500000 
	C340.662201,583.498901 334.487701,583.896729 328.486420,583.102722 
	C312.693756,581.013428 296.972931,578.790161 281.989044,573.028503 
	C281.408295,572.805115 280.666656,573.000000 280.000000,573.000000 
"/>
<path fill="none" opacity="1.000000" stroke="#000000" stroke-linecap="round" stroke-linejoin="round" stroke-width="2.000000"
	d="
M444.000000,126.500000 
	C437.976959,132.810272 432.146790,139.309494 425.518311,145.021255 
	C423.954834,146.368454 422.532684,147.856216 420.500000,148.500000 
"/>
<path fill="none" opacity="1.000000" stroke="#000000" stroke-linecap="round" stroke-linejoin="round" stroke-width="2.000000"
	d="
M555.000000,189.500000 
	C546.716858,197.308990 540.105286,206.592911 532.500000,215.000000 
"/>
<path fill="none" opacity="1.000000" stroke="#000000" stroke-linecap="round" stroke-linejoin="round" stroke-width="5.000000"
	d="
M629.500000,415.500000 
	C630.730957,423.323761 633.029541,430.990784 632.978088,438.999847 
	C632.972778,439.833923 633.428833,440.819092 632.500000,441.500000 
"/>
<path fill="none" opacity="1.000000" stroke="#000000" stroke-linecap="round" stroke-linejoin="round" stroke-width="2.000000"
	d="
M390.000000,156.500000 
	C389.666656,157.166656 389.422180,158.349274 388.986938,158.424240 
	C379.112610,160.124893 370.776794,165.788406 361.500000,169.000000 
"/>
<path fill="none" opacity="1.000000" stroke="#000000" stroke-linecap="round" stroke-linejoin="round" stroke-width="2.000000"
	d="
M339.000000,136.000000 
	C333.598511,135.243011 328.372620,137.295349 322.471100,136.994949 
	C322.769165,150.833328 321.851410,164.667023 323.008636,178.499283 
	C323.095093,179.532257 322.937592,180.408371 322.000000,181.000000 
"/>
<path fill="none" opacity="1.000000" stroke="#000000" stroke-linecap="round" stroke-linejoin="round" stroke-width="2.000000"
	d="
M306.000000,600.999939 
	C313.500000,602.166626 321.000549,603.329895 328.499268,604.504700 
	C329.338104,604.636108 330.166656,604.833374 331.000000,605.000061 
"/>
<path fill="none" opacity="1.000000" stroke="#000000" stroke-linecap="round" stroke-linejoin="round" stroke-width="2.000000"
	d="
M387.000000,159.500000 
	C381.738159,168.208984 375.290314,176.046616 369.000000,184.000000 
"/>
<path fill="none" opacity="1.000000" stroke="#000000" stroke-linecap="round" stroke-linejoin="round" stroke-width="2.000000"
	d="
M379.500000,509.500000 
	C372.279083,514.898987 364.355377,519.143372 356.500000,523.500000 
"/>
<path fill="none" opacity="1.000000" stroke="#000000" stroke-linecap="round" stroke-linejoin="round" stroke-width="2.000000"
	d="
M641.000000,552.500000 
	C634.169800,559.706604 625.168518,564.214050 618.000000,571.000000 
"/>
<path fill="none" opacity="1.000000" stroke="#000000" stroke-linecap="round" stroke-linejoin="round" stroke-width="3.000000"
	d="
M701.000000,641.500000 
	C693.184448,639.679321 693.222900,639.690369 690.984863,647.495667 
	C689.735535,651.853027 688.333313,656.166687 687.000000,660.500000 
"/>
<path fill="none" opacity="1.000000" stroke="#000000" stroke-linecap="round" stroke-linejoin="round" stroke-width="2.000000"
	d="
M431.500000,154.000000 
	C444.892395,158.400528 457.515350,164.543701 470.156860,171.137344 
	C469.076569,173.262390 467.002136,174.189499 464.983490,174.956573 
	C461.422668,176.309647 459.266144,178.366806 459.978485,182.503708 
	C460.223114,183.924332 459.780060,185.278351 459.000000,186.500000 
"/>
<path fill="none" opacity="1.000000" stroke="#000000" stroke-linecap="round" stroke-linejoin="round" stroke-width="3.000000"
	d="
M347.500000,80.500000 
	C346.636536,87.833336 346.727173,95.166664 347.500000,102.500000 
"/>
<path fill="none" opacity="1.000000" stroke="#000000" stroke-linecap="round" stroke-linejoin="round" stroke-width="2.000000"
	d="
M661.500000,559.000000 
	C651.478638,554.246277 640.763977,551.809875 630.017029,549.423462 
	C628.427673,549.070496 627.186462,549.498474 626.023071,550.048828 
	C618.299194,553.702454 610.691895,557.581177 604.000000,563.000000 
"/>
<path fill="none" opacity="1.000000" stroke="#000000" stroke-linecap="round" stroke-linejoin="round" stroke-width="2.000000"
	d="
M393.000000,513.000000 
	C385.537109,517.028259 378.338470,521.477295 371.500000,526.500000 
"/>
<path fill="none" opacity="1.000000" stroke="#000000" stroke-linecap="round" stroke-linejoin="round" stroke-width="3.000000"
	d="
M591.000000,540.000000 
	C590.664917,542.647339 591.068359,544.401123 594.505432,544.053467 
	C599.614868,543.536560 604.532471,545.089722 609.500000,546.000000 
"/>
<path fill="none" opacity="1.000000" stroke="#000000" stroke-linecap="round" stroke-linejoin="round" stroke-width="2.000000"
	d="
M356.499969,504.499969 
	C350.166656,508.333313 343.868011,512.226807 337.455719,515.923157 
	C336.660339,516.381592 335.664642,516.330627 335.500000,517.500000 
"/>
<path fill="none" opacity="1.000000" stroke="#000000" stroke-linecap="round" stroke-linejoin="round" stroke-width="2.000000"
	d="
M409.000000,518.000000 
	C401.670227,521.707764 394.107086,524.997437 387.500000,530.000000 
"/>
<path fill="none" opacity="1.000000" stroke="#000000" stroke-linecap="round" stroke-linejoin="round" stroke-width="3.000000"
	d="
M613.000000,494.500000 
	C608.089111,501.565887 601.583374,506.558380 593.500000,509.500000 
"/>
<path fill="none" opacity="1.000000" stroke="#000000" stroke-linecap="round" stroke-linejoin="round" stroke-width="2.000000"
	d="
M671.000000,566.000000 
	C669.333313,573.000000 667.666626,580.000000 666.000000,587.000000 
"/>
<path fill="none" opacity="1.000000" stroke="#000000" stroke-linecap="round" stroke-linejoin="round" stroke-width="3.000000"
	d="
M402.000000,189.750000 
	C394.253601,189.978363 386.978912,187.376602 379.500000,186.000000 
"/>
<path fill="none" opacity="1.000000" stroke="#000000" stroke-linecap="round" stroke-linejoin="round" stroke-width="3.000000"
	d="
M351.000000,70.000000 
	C347.000000,68.360191 342.831726,69.456535 339.036713,70.189972 
	C332.155182,71.519920 325.319336,70.383011 318.500519,71.005630 
	C317.814514,71.068268 317.000671,70.669411 316.000000,72.350883 
	C316.000000,73.321854 316.000000,75.160927 316.000000,77.000000 
"/>
<path fill="none" opacity="1.000000" stroke="#000000" stroke-linecap="round" stroke-linejoin="round" stroke-width="2.000000"
	d="
M589.000000,219.500000 
	C592.358093,227.226990 598.397583,233.122803 603.000000,240.000000 
"/>
<path fill="none" opacity="1.000000" stroke="#000000" stroke-linecap="round" stroke-linejoin="round" stroke-width="5.000000"
	d="
M630.500000,461.500000 
	C630.569519,467.226746 627.079895,471.808014 625.359558,476.953033 
	C624.857849,478.453430 623.947815,479.815918 624.000000,481.500000 
"/>
<path fill="none" opacity="1.000000" stroke="#000000" stroke-linecap="round" stroke-linejoin="round" stroke-width="3.000000"
	d="
M543.000000,258.500000 
	C542.833374,258.333313 542.656982,258.175232 542.501465,257.998688 
	C540.859009,256.133667 543.201050,253.396362 540.599976,251.371582 
	C537.868896,249.245682 534.656616,250.621078 531.960449,249.068726 
	C530.167236,248.036255 529.085266,250.228165 528.079041,251.092072 
	C523.072632,255.390442 518.333313,260.000000 513.500000,264.500000 
"/>
<path fill="none" opacity="1.000000" stroke="#000000" stroke-linecap="round" stroke-linejoin="round" stroke-width="3.000000"
	d="
M466.500000,101.500000 
	C463.416656,108.000000 460.333344,114.500000 457.250000,121.000000 
"/>
<path fill="none" opacity="1.000000" stroke="#000000" stroke-linecap="round" stroke-linejoin="round" stroke-width="2.000000"
	d="
M343.000000,502.000000 
	C336.666656,506.000000 330.333344,510.000000 324.000000,514.000000 
"/>
<path fill="none" opacity="1.000000" stroke="#000000" stroke-linecap="round" stroke-linejoin="round" stroke-width="2.000000"
	d="
M530.500000,221.500015 
	C530.833374,220.833344 531.221069,220.187714 531.488953,219.495743 
	C532.096191,217.927185 532.779480,216.019760 530.950195,215.098953 
	C529.433655,214.335587 527.429932,215.152466 526.564209,216.540070 
	C523.200378,221.931946 517.250366,225.162750 514.539062,231.018082 
	C513.383850,233.512772 510.832550,235.749802 512.500000,239.000000 
"/>
<path fill="none" opacity="1.000000" stroke="#000000" stroke-linecap="round" stroke-linejoin="round" stroke-width="2.000000"
	d="
M638.500000,530.500000 
	C646.910706,528.607666 653.168518,535.522827 660.907227,535.710876 
	C661.962463,539.073975 659.124146,541.197693 659.000000,544.000000 
"/>
<path fill="none" opacity="1.000000" stroke="#000000" stroke-linecap="round" stroke-linejoin="round" stroke-width="2.000000"
	d="
M341.000000,113.500000 
	C340.828949,125.347237 339.101227,137.127991 339.490753,149.000305 
	C339.556274,150.998154 339.500000,153.000000 339.500000,155.000000 
"/>
<path fill="none" opacity="1.000000" stroke="#000000" stroke-linecap="round" stroke-linejoin="round" stroke-width="3.000000"
	d="
M323.000000,70.000000 
	C323.544067,65.668037 324.833740,62.030373 328.922546,59.380486 
	C333.031708,56.717422 337.541046,55.220306 341.969055,55.755917 
	C345.978394,56.240887 349.449432,59.367558 350.916504,63.529430 
	C351.738922,65.862495 354.435455,68.130829 352.000000,71.000000 
"/>
<path fill="none" opacity="1.000000" stroke="#000000" stroke-linecap="round" stroke-linejoin="round" stroke-width="2.000000"
	d="
M672.500000,563.500000 
	C666.206909,568.122620 658.601562,570.558167 652.500000,575.500000 
"/>
<path fill="none" opacity="1.000000" stroke="#000000" stroke-linecap="round" stroke-linejoin="round" stroke-width="7.000000"
	d="
M189.000000,691.500000 
	C189.244720,694.296387 190.784424,695.843628 193.493225,696.526855 
	C197.020996,697.416809 200.500000,698.500000 204.000000,699.500000 
"/>
<path fill="none" opacity="1.000000" stroke="#000000" stroke-linecap="round" stroke-linejoin="round" stroke-width="3.000000"
	d="
M425.500000,511.500000 
	C424.833344,517.666687 424.166687,523.833313 423.500000,530.000000 
"/>
<path fill="none" opacity="1.000000" stroke="#000000" stroke-linecap="round" stroke-linejoin="round" stroke-width="3.000000"
	d="
M487.500000,190.000000 
	C488.718811,191.462555 489.937653,192.925110 491.423004,194.707535 
	C487.478455,197.834717 485.235535,202.649918 480.000000,204.000000 
"/>
<path fill="none" opacity="1.000000" stroke="#000000" stroke-linecap="round" stroke-linejoin="round" stroke-width="3.000000"
	d="
M323.500000,113.500000 
	C322.944855,121.166664 322.528015,128.833328 323.500000,136.500000 
"/>
<path fill="none" opacity="1.000000" stroke="#000000" stroke-linecap="round" stroke-linejoin="round" stroke-width="3.000000"
	d="
M340.000000,120.000000 
	C334.666656,120.000000 329.333344,120.000000 324.000000,120.000000 
"/>
<path fill="none" opacity="1.000000" stroke="#000000" stroke-linecap="round" stroke-linejoin="round" stroke-width="3.000000"
	d="
M323.000000,155.000000 
	C328.297302,156.320114 333.637543,156.265045 339.000000,155.500000 
"/>
<path fill="none" opacity="1.000000" stroke="#000000" stroke-linecap="round" stroke-linejoin="round" stroke-width="6.000000"
	d="
M137.999985,640.000000 
	C138.999985,642.500000 139.535995,645.356140 141.114151,647.412354 
	C143.218719,650.154541 142.809143,652.690552 142.000000,655.500000 
"/>
<path fill="none" opacity="1.000000" stroke="#000000" stroke-linecap="round" stroke-linejoin="round" stroke-width="2.000000"
	d="
M489.000000,604.500000 
	C483.700653,606.350281 478.206879,607.736938 473.500000,611.000000 
"/>
<path fill="none" opacity="1.000000" stroke="#000000" stroke-linecap="round" stroke-linejoin="round" stroke-width="8.000000"
	d="
M132.500000,599.500000 
	C131.312286,601.886108 131.384293,604.458435 131.521973,606.998779 
	C131.750809,611.221252 131.249252,615.366577 130.500000,619.500000 
"/>
<path fill="none" opacity="1.000000" stroke="#000000" stroke-linecap="round" stroke-linejoin="round" stroke-width="4.000000"
	d="
M529.500000,663.500000 
	C526.050659,668.207336 525.367859,674.253296 522.000000,679.000000 
"/>
<path fill="none" opacity="1.000000" stroke="#000000" stroke-linecap="round" stroke-linejoin="round" stroke-width="5.000000"
	d="
M607.500000,384.500000 
	C611.533630,388.482391 615.622498,392.418396 618.974243,397.018768 
	C619.462891,397.689514 620.675232,398.398285 619.500000,399.500000 
"/>
<path fill="none" opacity="1.000000" stroke="#000000" stroke-linecap="round" stroke-linejoin="round" stroke-width="2.000000"
	d="
M418.500000,523.500000 
	C413.406097,526.343506 408.203522,529.005859 403.500000,532.500000 
"/>
<path fill="none" opacity="1.000000" stroke="#000000" stroke-linecap="round" stroke-linejoin="round" stroke-width="2.000000"
	d="
M524.000000,222.000000 
	C526.071472,223.507919 526.780273,225.924255 528.263367,228.165894 
	C521.118835,236.278702 509.142609,238.734406 504.000000,249.000000 
"/>
<path fill="none" opacity="1.000000" stroke="#000000" stroke-linecap="round" stroke-linejoin="round" stroke-width="3.000000"
	d="
M454.500000,190.500000 
	C455.601715,195.468826 454.708252,200.504166 455.000000,205.500000 
"/>
<path fill="none" opacity="1.000000" stroke="#000000" stroke-linecap="round" stroke-linejoin="round" stroke-width="5.000000"
	d="
M587.500000,373.000000 
	C582.925964,370.055817 577.724915,368.534485 572.750000,366.500000 
"/>
<path fill="none" opacity="1.000000" stroke="#000000" stroke-linecap="round" stroke-linejoin="round" stroke-width="2.000000"
	d="
M162.500000,741.500000 
	C166.161499,745.598206 167.507217,751.019653 170.500000,755.500000 
"/>
<path fill="none" opacity="1.000000" stroke="#000000" stroke-linecap="round" stroke-linejoin="round" stroke-width="6.000000"
	d="
M243.000000,698.000000 
	C238.565475,699.419189 234.270828,701.362122 229.500549,701.516907 
	C228.655716,701.544250 228.447296,702.317200 228.250000,703.000000 
"/>
<path fill="none" opacity="1.000000" stroke="#000000" stroke-linecap="round" stroke-linejoin="round" stroke-width="3.000000"
	d="
M323.000000,181.000000 
	C329.287628,182.078964 335.659210,182.113998 341.988739,182.636444 
	C346.985657,183.048889 352.085510,183.402451 357.017487,183.645813 
	C364.222351,184.001328 371.270905,185.894867 378.500000,185.500000 
"/>
<path fill="none" opacity="1.000000" stroke="#000000" stroke-linecap="round" stroke-linejoin="round" stroke-width="3.000000"
	d="
M330.500000,80.000000 
	C330.905518,83.166664 328.955841,86.333336 330.679047,89.559204 
	C332.831940,89.698334 335.165955,89.849167 337.500000,90.000000 
"/>
<path fill="none" opacity="1.000000" stroke="#000000" stroke-linecap="round" stroke-linejoin="round" stroke-width="3.000000"
	d="
M390.000000,159.500000 
	C392.454620,163.570480 392.398926,168.703018 395.500000,172.500000 
"/>
<path fill="none" opacity="1.000000" stroke="#000000" stroke-linecap="round" stroke-linejoin="round" stroke-width="2.000000"
	d="
M512.000000,240.500000 
	C517.286011,248.090759 517.736145,246.293259 511.386414,253.398499 
	C510.009644,254.939087 508.693909,256.693909 507.000000,258.000000 
"/>
<path fill="none" opacity="1.000000" stroke="#000000" stroke-linecap="round" stroke-linejoin="round" stroke-width="2.000000"
	d="
M687.000000,579.000000 
	C682.833374,581.166687 678.666687,583.333374 674.500000,585.500000 
"/>
<path fill="none" opacity="1.000000" stroke="#000000" stroke-linecap="round" stroke-linejoin="round" stroke-width="2.000000"
	d="
M327.500031,498.500031 
	C323.500031,501.500031 319.500031,504.500031 315.500031,507.500031 
"/>
<path fill="none" opacity="1.000000" stroke="#000000" stroke-linecap="round" stroke-linejoin="round" stroke-width="2.000000"
	d="
M631.500000,204.500000 
	C627.282227,206.264633 623.082397,208.062424 619.500000,211.000000 
"/>
<path fill="none" opacity="1.000000" stroke="#000000" stroke-linecap="round" stroke-linejoin="round" stroke-width="2.000000"
	d="
M387.000000,589.000000 
	C384.378540,592.989929 380.446472,596.011169 378.500000,600.500000 
"/>
<path fill="none" opacity="1.000000" stroke="#000000" stroke-linecap="round" stroke-linejoin="round" stroke-width="3.000000"
	d="
M156.000000,724.000000 
	C157.564758,727.712158 158.833054,731.514587 159.500000,735.500000 
"/>
<path fill="none" opacity="1.000000" stroke="#000000" stroke-linecap="round" stroke-linejoin="round" stroke-width="3.000000"
	d="
M559.000000,183.000000 
	C553.483154,187.486435 556.672913,193.607635 556.089233,199.009644 
	C556.061340,199.267929 557.333313,199.666672 558.000000,200.000000 
"/>
<path fill="none" opacity="1.000000" stroke="#000000" stroke-linecap="round" stroke-linejoin="round" stroke-width="2.000000"
	d="
M682.500000,573.500000 
	C678.345093,574.092468 675.141602,576.778198 671.500000,578.500000 
"/>
<path fill="none" opacity="1.000000" stroke="#000000" stroke-linecap="round" stroke-linejoin="round" stroke-width="7.000000"
	d="
M143.500000,563.500000 
	C139.073456,567.320129 136.278793,571.899902 136.750000,578.000000 
"/>
<path fill="none" opacity="1.000000" stroke="#000000" stroke-linecap="round" stroke-linejoin="round" stroke-width="3.000000"
	d="
M336.500000,26.500000 
	C336.148346,31.215595 336.950500,35.856850 337.546539,40.494019 
	C337.990875,43.950886 339.141602,46.977024 334.612152,49.225872 
	C332.080841,50.482639 330.450256,53.943233 331.500000,57.500000 
"/>
<path fill="none" opacity="1.000000" stroke="#000000" stroke-linecap="round" stroke-linejoin="round" stroke-width="2.000000"
	d="
M482.500000,217.000000 
	C478.792267,219.625610 476.233795,223.400452 473.000000,226.500000 
"/>
<path fill="none" opacity="1.000000" stroke="#000000" stroke-linecap="round" stroke-linejoin="round" stroke-width="3.000000"
	d="
M165.000000,523.000000 
	C161.282745,526.299622 159.696655,531.020142 156.994629,534.996338 
	C156.324982,535.981812 156.358871,537.692200 154.500000,537.500000 
"/>
<path fill="none" opacity="1.000000" stroke="#000000" stroke-linecap="round" stroke-linejoin="round" stroke-width="2.000000"
	d="
M533.000000,250.500000 
	C534.292847,252.778931 532.524048,254.844910 532.545959,256.999542 
	C532.629822,265.262817 527.284363,269.997772 521.500000,274.500000 
"/>
<path fill="none" opacity="1.000000" stroke="#000000" stroke-linecap="round" stroke-linejoin="round" stroke-width="3.000000"
	d="
M696.500000,584.500000 
	C698.015015,589.000000 695.556030,593.500000 696.500000,598.000000 
"/>
<path fill="none" opacity="1.000000" stroke="#000000" stroke-linecap="round" stroke-linejoin="round" stroke-width="2.000000"
	d="
M541.500000,280.000000 
	C538.666687,282.333344 535.833374,284.666687 533.000000,287.000000 
"/>
<path fill="none" opacity="1.000000" stroke="#000000" stroke-linecap="round" stroke-linejoin="round" stroke-width="3.000000"
	d="
M448.500000,120.000000 
	C451.112549,122.844086 454.822327,120.613449 457.750000,122.000000 
"/>
<path fill="none" opacity="1.000000" stroke="#000000" stroke-linecap="round" stroke-linejoin="round" stroke-width="8.000000"
	d="
M155.500000,674.500000 
	C158.808823,673.545532 160.255157,676.159363 161.972702,678.025146 
	C164.571594,680.848206 167.194366,683.404480 171.500000,682.500000 
"/>
<path fill="none" opacity="1.000000" stroke="#000000" stroke-linecap="round" stroke-linejoin="round" stroke-width="2.000000"
	d="
M573.000000,169.500000 
	C574.580322,173.166672 571.906250,176.833328 573.000000,180.500000 
"/>
<path fill="none" opacity="1.000000" stroke="#000000" stroke-linecap="round" stroke-linejoin="round" stroke-width="2.000000"
	d="
M353.000000,72.000000 
	C359.222137,74.812790 359.315765,79.895393 358.000000,85.500000 
"/>
<path fill="none" opacity="1.000000" stroke="#000000" stroke-linecap="round" stroke-linejoin="round" stroke-width="3.000000"
	d="
M338.000000,48.000000 
	C339.872620,50.025173 342.064758,51.867760 342.000000,55.000000 
"/>
<path fill="none" opacity="1.000000" stroke="#000000" stroke-linecap="round" stroke-linejoin="round" stroke-width="3.000000"
	d="
M418.000000,162.500000 
	C416.296722,163.949722 415.404724,165.841980 415.000000,168.000000 
"/>
<path fill="none" opacity="1.000000" stroke="#000000" stroke-linecap="round" stroke-linejoin="round" stroke-width="3.000000"
	d="
M700.500000,574.500000 
	C698.576294,579.917664 696.453857,585.182434 690.500000,587.500000 
"/>
<path fill="none" opacity="1.000000" stroke="#000000" stroke-linecap="round" stroke-linejoin="round" stroke-width="2.000000"
	d="
M471.500000,82.000000 
	C473.078644,83.844559 475.667145,83.265533 477.500000,84.500000 
"/>
<path fill="none" opacity="1.000000" stroke="#000000" stroke-linecap="round" stroke-linejoin="round" stroke-width="2.000000"
	d="
M503.500000,235.000000 
	C505.345093,236.432205 507.140167,237.950195 509.500000,238.500000 
"/>
<path fill="none" opacity="1.000000" stroke="#000000" stroke-linecap="round" stroke-linejoin="round" stroke-width="3.000000"
	d="
M351.000000,72.000000 
	C348.721344,73.247147 351.278656,76.252853 349.000000,77.500000 
"/>
<path fill="none" opacity="1.000000" stroke="#000000" stroke-linecap="round" stroke-linejoin="round" stroke-width="3.000000"
	d="
M159.500000,669.500000 
	C159.500000,671.333313 159.500000,673.166687 159.500000,675.000000 
"/>
<path fill="none" opacity="1.000000" stroke="#000000" stroke-linecap="round" stroke-linejoin="round" stroke-width="2.000000"
	d="
M473.000031,612.500000 
	C473.333374,613.666687 473.666687,614.833313 474.000031,616.000000 
"/>
<path fill="none" opacity="1.000000" stroke="#000000" stroke-linecap="round" stroke-linejoin="round" stroke-width="2.000000"
	d="
M560.000000,186.000000 
	C561.423035,187.635208 558.955261,189.977829 561.000000,191.500000 
"/>
<path fill="none" opacity="1.000000" stroke="#000000" stroke-linecap="round" stroke-linejoin="round" stroke-width="2.000000"
	d="
M493.000000,188.500000 
	C494.530731,189.782898 493.688904,190.670364 492.500000,191.500000 
"/>
<path fill="none" opacity="1.000000" stroke="#000000" stroke-linecap="round" stroke-linejoin="round" stroke-width="2.000000"
	d="
M610.000000,600.000000 
	C608.998474,599.912842 608.638062,601.031860 607.502808,601.074646 
	C602.154419,601.276550 602.827393,605.713379 602.610229,609.007263 
	C602.397644,612.233154 606.389832,615.615295 610.000000,616.000000 
	C614.498779,616.479309 616.710449,615.097046 618.000000,611.000000 
	C620.194580,604.027710 619.217468,602.594604 610.500000,600.000000 
"/>
<path fill="none" opacity="1.000000" stroke="#000000" stroke-linecap="round" stroke-linejoin="round" stroke-width="2.000000"
	d="
M278.500000,283.000000 
	C275.860992,283.786987 276.693787,286.196777 277.110138,287.463806 
	C280.772827,298.610626 288.306854,307.037811 297.082428,314.401764 
	C298.498138,315.589722 300.780151,316.168945 303.002930,316.059418 
	C304.584564,315.981476 305.591675,315.456207 305.976715,313.993866 
	C306.330383,312.650635 305.557159,311.662689 304.489532,311.017334 
	C302.190277,309.627594 299.935089,308.090485 297.474945,307.059784 
	C294.202515,305.688812 292.998047,303.348785 292.971863,300.000214 
	C292.954895,297.832367 293.149170,295.686676 292.551727,293.485962 
	C290.194763,284.803772 287.976044,283.000000 279.000000,283.000000 
"/>
<path fill="none" opacity="1.000000" stroke="#000000" stroke-linecap="round" stroke-linejoin="round" stroke-width="3.000000"
	d="
M403.000000,404.000000 
	C399.491882,406.163971 399.904510,409.694183 400.060364,412.997162 
	C400.149292,414.882355 405.335846,415.866608 407.013062,414.516205 
	C409.371857,412.617004 409.463318,409.913086 408.871185,407.532043 
	C408.286957,405.182678 406.631531,403.126648 403.500000,404.000000 
"/>
</svg>